
        <svg xmlns="http://www.w3.org/2000/svg" xmlns:xlink="http://www.w3.org/1999/xlink" version="1.1" width="3162.2859195079795" 
        height="586.5188211263496" viewBox="0 0 3162.2859195079795 586.5188211263496">
			
			<g transform="scale(8.114295975398981) translate(10, 10)">
				<defs id="SvgjsDefs2020"><linearGradient id="SvgjsLinearGradient2025"><stop id="SvgjsStop2026" stop-color="#ef4136" offset="0"></stop><stop id="SvgjsStop2027" stop-color="#fbb040" offset="1"></stop></linearGradient></defs><g id="SvgjsG2021" featureKey="symbolFeature-0" transform="matrix(1.112386333539331,0,0,1.112386333539331,-2.7809658338483274,-2.7809658338483274)" fill="url(#SvgjsLinearGradient2025)"><g xmlns="http://www.w3.org/2000/svg"><g><path d="M28.6435547,49.5C27.5356445,49.5,26.5600586,48.9238281,26,48.0556641    C25.4399414,48.9238281,24.4643555,49.5,23.3564453,49.5c-1.7333984,0-3.144043-1.4101563-3.144043-3.1435547V20.4482422    c0-0.2763672,0.2236328-0.5,0.5-0.5h10.5751953c0.2763672,0,0.5,0.2236328,0.5,0.5v25.9082031    C31.7875977,48.0898438,30.3769531,49.5,28.6435547,49.5z M26,45.8564453c0.2763672,0,0.5,0.2236328,0.5,0.5    C26.5,47.5380859,27.4614258,48.5,28.6435547,48.5s2.144043-0.9619141,2.144043-2.1435547V20.9482422h-9.5751953v25.4082031    c0,1.1816406,0.9619141,2.1435547,2.144043,2.1435547S25.5,47.5380859,25.5,46.3564453    C25.5,46.0800781,25.7236328,45.8564453,26,45.8564453z"></path></g><g><path d="M31.1870117,20.9482422c-0.1245117,0-0.2490234-0.0458984-0.3457031-0.1386719    c-0.199707-0.1914063-0.206543-0.5078125-0.015625-0.7070313l3.5649414-3.7226563V4.0898438c0-0.2763672,0.2236328-0.5,0.5-0.5    s0.5,0.2236328,0.5,0.5v12.4912109c0,0.1289063-0.0498047,0.2529297-0.1386719,0.3457031l-3.7036133,3.8671875    C31.449707,20.8964844,31.3183594,20.9482422,31.1870117,20.9482422z"></path></g><g><path d="M20.8129883,20.9482422c-0.1313477,0-0.2626953-0.0517578-0.3613281-0.1542969l-3.7036133-3.8671875    c-0.0888672-0.0927734-0.1386719-0.2167969-0.1386719-0.3457031V4.0898438c0-0.2763672,0.2236328-0.5,0.5-0.5    s0.5,0.2236328,0.5,0.5v12.2900391l3.5649414,3.7226563c0.190918,0.1992188,0.184082,0.515625-0.015625,0.7070313    C21.0620117,20.9023438,20.9375,20.9482422,20.8129883,20.9482422z"></path></g><g><path d="M26,46.8564453c-0.2763672,0-0.5-0.2236328-0.5-0.5V35.7138672c0-0.2763672,0.2236328-0.5,0.5-0.5s0.5,0.2236328,0.5,0.5    v10.6425781C26.5,46.6328125,26.2763672,46.8564453,26,46.8564453z"></path></g><g><path d="M49,6.1435547H3c-0.2763672,0-0.5-0.2236328-0.5-0.5s0.2236328-0.5,0.5-0.5h46c0.2763672,0,0.5,0.2236328,0.5,0.5    S49.2763672,6.1435547,49,6.1435547z"></path></g><g><path d="M26,16.71875c-2.0249023,0-3.6723633-1.6474609-3.6723633-3.6728516S23.9750977,9.3730469,26,9.3730469    s3.6723633,1.6474609,3.6723633,3.6728516S28.0249023,16.71875,26,16.71875z M26,10.3730469    c-1.4736328,0-2.6723633,1.1992188-2.6723633,2.6728516S24.5263672,15.71875,26,15.71875s2.6723633-1.1992188,2.6723633-2.6728516    S27.4736328,10.3730469,26,10.3730469z"></path></g><g><g><path d="M38.8271484,8.7871094c-0.2763672,0-0.5-0.2236328-0.5-0.5V3c0-0.2763672,0.2236328-0.5,0.5-0.5s0.5,0.2236328,0.5,0.5     v5.2871094C39.3271484,8.5634766,39.1035156,8.7871094,38.8271484,8.7871094z"></path></g><g><path d="M42.9697266,8.7871094c-0.2763672,0-0.5-0.2236328-0.5-0.5V3c0-0.2763672,0.2236328-0.5,0.5-0.5s0.5,0.2236328,0.5,0.5     v5.2871094C43.4697266,8.5634766,43.2460938,8.7871094,42.9697266,8.7871094z"></path></g><g><path d="M47.112793,8.7871094c-0.2763672,0-0.5-0.2236328-0.5-0.5V3c0-0.2763672,0.2236328-0.5,0.5-0.5s0.5,0.2236328,0.5,0.5     v5.2871094C47.612793,8.5634766,47.3891602,8.7871094,47.112793,8.7871094z"></path></g><g><path d="M4.887207,8.7871094c-0.2763672,0-0.5-0.2236328-0.5-0.5V3c0-0.2763672,0.2236328-0.5,0.5-0.5s0.5,0.2236328,0.5,0.5     v5.2871094C5.387207,8.5634766,5.1635742,8.7871094,4.887207,8.7871094z"></path></g><g><path d="M9.0302734,8.7871094c-0.2763672,0-0.5-0.2236328-0.5-0.5V3c0-0.2763672,0.2236328-0.5,0.5-0.5s0.5,0.2236328,0.5,0.5     v5.2871094C9.5302734,8.5634766,9.3066406,8.7871094,9.0302734,8.7871094z"></path></g><g><path d="M13.1728516,8.7871094c-0.2763672,0-0.5-0.2236328-0.5-0.5V3c0-0.2763672,0.2236328-0.5,0.5-0.5s0.5,0.2236328,0.5,0.5     v5.2871094C13.6728516,8.5634766,13.4492188,8.7871094,13.1728516,8.7871094z"></path></g></g></g></g><g id="SvgjsG2022" featureKey="nameFeature-0" transform="matrix(1.642762508096287,0,0,1.642762508096287,72,-16.58173392182181)" fill="#fdbd89"><path d="M0 11.96 l4.12 0 l0 25.4 l-1.48 0 l0 -23.96 l-1.2 0 l0 25.16 l13.16 0 l0 -3.84 l-6.52 0 l0 -1.44 l7.96 0 l0 6.72 l-16.04 0 l0 -28.04 z M5.44 11.96 l1.44 0 l0 23.92 l6.44 0 l0 1.48 l-7.88 0 l0 -25.4 z M27.485 12 l4.2 0 l0 25.32 l-1.44 0 l0 -23.88 l-1.32 0 l0 25.12 l4.04 0 l0 -26.56 l1.44 0 l0 28 l-6.92 0 l0 -28 z M43.81 12 l1.44 0 l0 26.56 l3.92 0 l0 -10 l9.36 0 l0 -1.32 l-9.32 0 l0 -1.44 l10.76 0 l0 4.2 l-9.36 0 l0 10 l-6.8 0 l0 -28 z M46.49 12 l15.44 0 l0 6.8 l-10 0 l0 -1.44 l8.56 0 l0 -3.92 l-12.6 0 l0 24 l-1.4 0 l0 -25.44 z M49.17 14.600000000000001 l10.08 0 l0 1.44 l-8.64 0 l0 7.08 l9.36 0 l0 1.48 l-10.8 0 l0 -10 z M79.45500000000001 17.2 l9.56 0 l0 -3.8 l-17 0 l0 1.24 l15.64 0 l0 1.44 l-17.08 0 l0 -4.12 l19.88 0 l0 6.68 l-9.56 0 l0 18.72 l-1.44 0 l0 -20.16 z M76.775 18.64 l-6.2 0 l0 -1.44 l7.64 0 l0 21.32 l4 0 l0 -18.64 l1.44 0 l0 20.12 l-6.88 0 l0 -21.36 z M98.82000000000001 11.96 l4.12 0 l0 25.4 l-1.48 0 l0 -23.96 l-1.2 0 l0 25.16 l13.16 0 l0 -3.84 l-6.52 0 l0 -1.44 l7.96 0 l0 6.72 l-16.04 0 l0 -28.04 z M104.26 11.96 l1.44 0 l0 23.92 l6.44 0 l0 1.48 l-7.88 0 l0 -25.4 z M137.185 40 c-2.44 0 -4.76 -0.64 -6.96 -1.92 c-4.4 -2.52 -7.12 -7.16 -7.12 -12.12 c0 -2.48 0.64 -4.8 1.92 -7 c2.52 -4.32 7.24 -7.04 12.16 -7.04 c2.44 0 4.8 0.64 7 1.88 c4.4 2.56 7.04 7.32 7.04 12.16 c0 2.44 -0.64 4.72 -1.88 6.92 c-2.56 4.4 -7.2 7.12 -12.16 7.12 z M137.185 13.32 c-2.28 0 -4.4 0.56 -6.32 1.68 c-3.88 2.24 -6.28 6.36 -6.28 10.96 c0 2.28 0.56 4.4 1.68 6.32 c2.24 3.88 6.32 6.28 10.92 6.28 c2.28 0 4.4 -0.56 6.36 -1.68 c3.88 -2.24 6.28 -6.32 6.28 -10.92 c0 -2.28 -0.56 -4.4 -1.68 -6.36 c-2.24 -3.88 -6.48 -6.28 -10.96 -6.28 z M137.185 37.28 c-2 0 -3.88 -0.52 -5.68 -1.52 c-3.56 -2.04 -5.76 -5.76 -5.76 -9.8 c0 -2.04 0.52 -3.92 1.52 -5.68 c2.04 -3.52 5.64 -5.6 9.92 -5.6 c2.16 0 4.12 0.48 5.84 1.44 c3.44 1.92 5.44 5.52 5.44 9.84 c0 2.04 -0.48 3.92 -1.44 5.64 c-1.96 3.48 -5.8 5.68 -9.84 5.68 z M137.185 16.08 c-1.8 0 -3.44 0.44 -4.96 1.32 c-3.08 1.76 -4.96 4.92 -4.96 8.56 c0 1.76 0.44 3.4 1.36 4.92 c1.76 3.08 4.88 5 8.56 5 c1.8 0 3.44 -0.44 4.96 -1.36 c3 -1.76 4.92 -5.04 4.92 -8.56 c0 -1.8 -0.44 -3.48 -1.32 -5 c-1.76 -3.04 -5.08 -4.88 -8.56 -4.88 z M137.185 34.68 c-1.56 0 -3.04 -0.4 -4.36 -1.16 c-2.68 -1.56 -4.4 -4.52 -4.4 -7.56 c0 -1.56 0.4 -3.04 1.2 -4.4 c1.56 -2.72 4.32 -4.28 7.56 -4.28 c1.56 0 3 0.4 4.32 1.16 c2.68 1.56 4.24 4.28 4.24 7.52 c0 1.6 -0.36 3.04 -1.08 4.36 c-1.48 2.64 -4.32 4.36 -7.48 4.36 z M137.185 18.72 c-1.28 0 -2.48 0.32 -3.6 0.96 c-2.24 1.32 -3.68 3.68 -3.68 6.28 c0 1.28 0.32 2.48 0.96 3.56 c1.28 2.24 3.6 3.6 6.32 3.6 c1.32 0 2.56 -0.32 3.64 -0.96 c2.2 -1.28 3.52 -3.64 3.52 -6.2 c0 -1.32 -0.32 -2.52 -0.96 -3.64 c-1.28 -2.24 -3.64 -3.6 -6.2 -3.6 z M171.23 40 c-2.48 0 -4.8 -0.64 -6.92 -1.92 c-4.32 -2.52 -7.04 -7.28 -7.04 -12.04 c0 -2.48 0.64 -4.84 1.92 -7.04 c2.56 -4.44 6.96 -6.96 12.04 -6.96 c3.48 0 6.84 1.32 9.4 3.68 c0.08 0.04 0.2 0.12 0.32 0.24 l0.28 0.32 l-1 1.04 l-0.56 -0.56 c-2.28 -2.12 -5.28 -3.28 -8.44 -3.28 c-2.24 0 -4.32 0.56 -6.24 1.68 c-3.88 2.24 -6.28 6.4 -6.28 10.88 c0 2.24 0.56 4.32 1.68 6.24 c2.24 3.88 6.36 6.28 10.84 6.28 c2.72 0 4.8 -0.76 8.2 -2.96 l0 -9.2 l-8.76 0 l0 -1.44 l10.16 0 l0 11.4 l-0.28 0.24 c-3.56 2.44 -6.12 3.4 -9.32 3.4 z M171.23 37.28 c-2 0 -3.88 -0.52 -5.6 -1.52 c-3.52 -2.04 -5.68 -5.72 -5.68 -9.72 c0 -2.04 0.52 -3.96 1.52 -5.72 c2.04 -3.48 5.64 -5.56 9.76 -5.56 c2.28 0 4.48 0.72 6.6 2.12 l1.04 0.8 l0.52 0.52 l-2.88 3.12 l-1.28 -1 c-1.16 -0.84 -2.52 -1.28 -4 -1.28 c-1.2 0 -2.36 0.32 -3.44 0.92 c-2.2 1.28 -3.52 3.52 -3.52 6.08 c0 1.2 0.32 2.36 0.96 3.44 c1.24 2.2 3.48 3.52 6 3.52 c1 0 1.92 -0.2 2.76 -0.64 l0 -0.64 l-3.32 0 l0 -4.08 l7.48 0 l0 7.12 l-0.92 0.72 c-1.8 1.24 -3.64 1.8 -6 1.8 z M171.23 16.2 c-1.76 0 -3.4 0.44 -4.92 1.32 c-3.04 1.76 -4.92 5 -4.92 8.52 c0 1.76 0.44 3.4 1.32 4.88 c1.76 3.04 5 4.92 8.52 4.92 c1.96 0 3.72 -0.52 5.2 -1.52 l0.28 -0.24 l0 -5 l-4.6 0 l0 1.2 l3.32 0 l0 3 l-0.4 0.2 c-1.32 0.64 -2.56 0.96 -3.8 0.96 c-1.44 0 -2.84 -0.4 -4.16 -1.16 c-2.68 -1.56 -4.24 -4.16 -4.24 -7.24 c0 -1.52 0.36 -2.92 1.12 -4.24 c1.48 -2.56 4.2 -4.16 7.28 -4.16 c1.72 0 3.36 0.52 4.84 1.52 l0.28 0.2 l0.96 -1.04 l-0.32 -0.24 c-1.72 -1.24 -3.64 -1.88 -5.76 -1.88 z"></path></g>
			</g>
		</svg>
	